<?xml version="1.0" standalone="no"?>
<!DOCTYPE svg PUBLIC "-//W3C//DTD SVG 20010904//EN"
 "http://www.w3.org/TR/2001/REC-SVG-20010904/DTD/svg10.dtd">
<svg version="1.0" xmlns="http://www.w3.org/2000/svg"
 width="512.000000pt" height="512.000000pt" viewBox="0 0 512.000000 512.000000"
 preserveAspectRatio="xMidYMid meet">
<metadata>
Created by potrace 1.14, written by Peter Selinger 2001-2017
</metadata>
<g transform="translate(0.000000,512.000000) scale(0.100000,-0.100000)"
fill="#000000" stroke="none">
<path d="M687 4465 c-205 -56 -367 -257 -363 -448 2 -99 -7 -97 346 -97 164 0
310 4 323 9 14 5 31 23 38 40 12 27 19 31 51 31 l38 0 0 -1480 0 -1480 -38 0
c-33 0 -39 4 -49 30 -6 17 -23 34 -38 40 -15 6 -149 10 -326 10 l-300 0 -23
-24 c-54 -59 -14 -237 81 -353 44 -55 142 -124 218 -154 l60 -24 1555 -2
c1297 -2 1564 -1 1607 11 159 43 288 159 347 314 20 55 21 75 24 494 2 284 -1
444 -7 456 -6 11 -25 26 -44 35 l-33 16 2 93 c1 51 7 108 13 127 8 27 8 41 -3
62 l-13 27 49 6 c44 6 57 14 104 63 64 67 151 208 218 352 43 93 47 107 38
137 -9 31 -7 36 27 72 28 29 132 206 136 232 1 3 14 32 29 65 44 97 107 287
108 325 0 26 -7 40 -28 57 -47 38 -68 30 -152 -53 -85 -83 -169 -143 -278
-198 -78 -39 -221 -96 -241 -96 -9 0 -13 19 -13 65 0 53 3 67 18 72 9 3 27 15
40 26 l22 20 0 357 c0 387 -4 423 -58 524 -34 65 -132 163 -198 198 -110 59
-22 57 -1699 56 -1248 0 -1549 -2 -1588 -13z"/>
</g>
</svg>
